<?xml version="1.0" standalone="no"?>
<!DOCTYPE svg PUBLIC "-//W3C//DTD SVG 20010904//EN"
 "http://www.w3.org/TR/2001/REC-SVG-20010904/DTD/svg10.dtd">
<svg version="1.0" xmlns="http://www.w3.org/2000/svg"
 width="512.000000pt" height="512.000000pt" viewBox="0 0 512.000000 512.000000"
 preserveAspectRatio="xMidYMid meet">
<metadata>
Created by potrace 1.14, written by Peter Selinger 2001-2017
</metadata>
<g transform="translate(0.000000,512.000000) scale(0.100000,-0.100000)"
fill="#000000" stroke="none">
<path d="M1427 4304 c-1 -1 -42 -4 -92 -8 -92 -6 -104 -7 -190 -27 -53 -11
-226 -64 -260 -79 -11 -5 -54 -23 -95 -40 -89 -37 -252 -122 -332 -173 -67
-43 -67 -44 -82 -252 -22 -303 -30 -643 -30 -1300 -1 -850 15 -1045 103 -1230
62 -131 141 -189 256 -189 86 0 133 21 196 86 78 81 146 251 165 415 3 26 7
50 9 53 2 3 7 37 10 75 4 39 9 84 11 100 2 17 6 109 10 205 4 112 10 179 17
187 7 6 37 14 67 18 370 42 764 345 962 738 40 80 91 225 102 288 3 19 8 47
11 64 9 42 9 200 2 270 -16 145 -83 326 -163 440 -111 159 -289 286 -463 331
-49 12 -207 33 -214 28z m44 -841 c17 -11 40 -39 56 -71 22 -46 25 -62 21
-125 -3 -48 -12 -87 -28 -116 -32 -64 -111 -143 -204 -205 -78 -52 -191 -116
-206 -116 -3 0 -6 51 -7 113 0 104 -3 168 -19 373 -5 63 -3 82 7 86 8 4 50 20
93 38 125 50 227 59 287 23z"/>
<path d="M2504 4233 c-91 -31 -153 -81 -185 -150 -25 -56 -31 -153 -12 -209
44 -129 185 -197 302 -144 24 11 45 20 46 20 11 0 -25 -89 -73 -183 -49 -94
-57 -117 -56 -163 0 -74 22 -98 86 -92 111 11 242 191 329 450 55 165 40 295
-45 379 -84 83 -281 130 -392 92z"/>
<path d="M4183 2949 c-19 -19 -16 -57 5 -67 9 -5 47 -12 84 -16 172 -17 343
-115 434 -248 16 -24 31 -45 34 -48 3 -3 10 -16 16 -30 40 -89 49 -117 59
-187 3 -18 6 -38 7 -45 2 -10 -21 -14 -85 -18 -70 -4 -91 -9 -102 -23 -17 -24
-8 -55 19 -63 31 -10 220 -8 240 3 30 17 19 189 -19 279 -8 19 -12 34 -10 34
6 0 -52 104 -79 144 -84 123 -253 239 -399 275 -81 19 -190 25 -204 10z"/>
<path d="M2920 2863 c-23 -10 -46 -36 -57 -68 -7 -20 -10 -178 -9 -465 1 -404
2 -438 19 -464 35 -53 46 -54 507 -54 336 0 432 3 458 14 37 15 64 39 55 48
-4 3 -1 6 5 6 9 0 11 118 9 465 l-2 465 -28 27 -27 28 -458 2 c-251 1 -464 -1
-472 -4z m490 -143 c11 -7 15 -32 17 -102 1 -51 2 -96 2 -100 1 -3 59 -6 131
-6 134 1 160 -6 160 -42 0 -27 -32 -49 -70 -48 -54 1 -56 0 -57 -24 -2 -65
-51 -182 -104 -249 -28 -36 -31 -52 -11 -55 4 0 24 -8 45 -18 20 -9 59 -19 85
-22 65 -8 112 -23 113 -37 5 -48 -19 -68 -77 -62 -78 8 -138 26 -200 59 l-61
32 -51 -28 c-93 -50 -239 -79 -272 -54 -20 15 -24 50 -8 64 8 6 36 14 63 17
54 7 132 30 172 50 l24 13 -28 33 c-44 53 -90 138 -96 178 -1 9 -5 21 -8 26
-3 6 -6 23 -7 39 -1 16 -4 31 -6 33 -2 2 -24 5 -50 7 -51 3 -64 11 -71 44 -6
36 26 44 165 44 l127 0 0 93 c-1 97 9 125 42 125 9 0 23 -5 31 -10z"/>
<path d="M3289 2422 c-21 -2 -26 -9 -26 -28 0 -13 4 -27 8 -30 5 -3 7 -9 4
-14 -7 -12 46 -116 79 -155 l26 -30 35 40 c19 22 38 50 41 63 3 12 10 22 15
22 5 0 9 8 9 18 1 9 7 35 15 56 8 22 11 44 7 50 -6 10 -150 15 -213 8z"/>
<path d="M4000 1945 c8 -9 8 -15 0 -20 -6 -3 -8 -11 -4 -16 11 -19 -27 -98
-63 -129 -40 -35 -72 -50 -122 -55 -29 -3 -70 -25 -45 -25 5 0 8 -135 6 -354
-1 -218 1 -363 8 -380 5 -14 24 -35 42 -46 32 -19 51 -20 471 -20 480 0 490 1
517 58 11 21 14 126 15 472 0 245 -2 447 -5 450 -3 3 -10 14 -16 25 -6 11 -25
27 -42 36 -28 14 -80 17 -403 17 -306 0 -368 -2 -359 -13z m348 -215 c13 -25
23 -47 22 -50 0 -3 2 -14 6 -25 3 -11 7 -22 8 -25 1 -3 6 -18 13 -35 17 -45
26 -69 28 -75 1 -3 5 -13 9 -22 4 -9 9 -22 10 -30 2 -7 8 -24 14 -38 10 -24
70 -185 76 -205 3 -10 6 -17 22 -60 14 -40 14 -58 -2 -76 -13 -14 -21 -16 -45
-7 -17 6 -28 13 -25 16 3 3 1 11 -5 19 -6 7 -8 13 -4 13 4 0 3 6 -2 13 -6 6
-18 35 -28 62 l-17 50 -87 -2 c-47 -1 -107 -2 -133 -2 -45 -1 -47 -2 -58 -38
-6 -21 -14 -45 -17 -53 -4 -8 -7 -17 -8 -20 -14 -51 -51 -79 -78 -57 -17 14
-28 43 -19 51 3 4 7 12 8 19 2 7 12 39 24 72 28 79 28 79 26 85 0 3 7 16 17
30 9 13 17 30 17 37 0 6 5 24 11 40 6 15 9 28 8 28 -1 0 3 10 10 23 12 23 79
205 86 234 2 9 11 30 20 48 24 47 62 39 93 -20z"/>
<path d="M4291 1597 c-1 -11 -7 -33 -15 -50 -21 -48 -48 -120 -51 -139 -2 -9
-8 -26 -14 -37 -6 -11 -8 -22 -4 -24 12 -7 183 -5 183 2 0 3 -9 31 -21 61 -11
30 -25 69 -31 85 -10 31 -18 53 -36 95 -8 19 -11 21 -11 7z"/>
<path d="M2845 1572 c-44 -2 -62 -8 -69 -20 -10 -17 -10 -104 -1 -152 3 -14 8
-41 11 -60 8 -40 64 -173 76 -178 4 -2 8 -8 8 -14 0 -14 82 -118 120 -152 102
-90 218 -147 348 -172 130 -25 172 -17 172 32 0 31 -17 41 -90 47 -79 8 -89
10 -165 37 -194 67 -371 281 -390 470 -2 22 -6 44 -9 49 -11 17 16 24 92 24
59 -1 78 3 92 17 19 19 17 58 -4 66 -17 6 -123 9 -191 6z"/>
</g>
</svg>
